<?xml version="1.0" encoding="UTF-8" standalone="no"?>
<!-- Created with Inkscape (http://www.inkscape.org/) -->

<svg
   width="35.988525mm"
   height="24.860434mm"
   viewBox="0 0 35.988525 24.860434"
   version="1.1"
   id="svg1"
   xml:space="preserve"
   xmlns="http://www.w3.org/2000/svg"
   xmlns:svg="http://www.w3.org/2000/svg"><defs
     id="defs1" /><g
     id="layer2"
     transform="translate(-31.749998,-212.46046)"><path
       style="fill:#000000;stroke-width:0.2;stroke-linejoin:round"
       d="m 44.393336,212.60247 -3.172669,12.31186 -4.2618,1.51531 -1.278538,0.66295 -3.83562,2.46237 -0.09471,0.28412 4.830038,2.88855 2.462371,1.18383 2.888554,1.4206 2.793844,1.23119 2.27296,0.61559 1.94148,0.14206 1.98884,-0.0473 2.9359,-0.75765 2.22561,-0.75766 1.9415,-0.805 1.98883,-0.89971 2.36766,-0.99442 2.27296,-1.3259 2.50973,-1.32589 0.56825,-0.42618 v -0.28412 l -0.42618,-0.28412 -1.9415,-1.27854 -2.32031,-1.32589 -1.89413,-0.80501 -2.17825,-0.85236 -0.99443,-0.33147 -2.46237,-12.02774 -0.61559,-0.33148 -0.52089,0.18942 -2.9359,0.56824 -2.50973,-0.66295 z"
       id="path1-9" /><path
       style="fill:#aa0000;stroke-width:0.2;stroke-linejoin:round"
       d="m 40.114452,228.91801 0.468773,0.97103 1.205418,0.93755 2.009031,0.93754 1.339352,0.50226 1.20542,0.36832 1.13845,0.10046 1.40632,0.10045 2.04252,-0.0335 1.17193,-0.067 1.37284,-0.26787 1.2389,-0.46878 1.20542,-0.43529 1.27239,-0.43529 0.90406,-0.46877 0.46878,-0.30136 0.194687,-0.40884 -0.773323,-5.12953 -1.798724,1.05154 -1.97554,0.43529 -2.51129,0.26787 -2.20994,0.10045 -1.4398,-0.2009 -1.33936,-0.16742 -1.54025,-0.30136 -1.640711,-0.33484 -1.071483,-0.30135 -1.236463,-0.45308 c -0.03054,-0.0243 -1.107407,4.00242 -1.107407,4.00242 z"
       id="path2-3" /></g></svg>
