<?xml version="1.0" encoding="UTF-8" standalone="no"?>
<!-- Created with Inkscape (http://www.inkscape.org/) -->

<svg
   width="36.134682mm"
   height="25.005903mm"
   viewBox="0 0 36.134682 25.005903"
   version="1.1"
   id="svg1"
   xml:space="preserve"
   xmlns="http://www.w3.org/2000/svg"
   xmlns:svg="http://www.w3.org/2000/svg"><defs
     id="defs1" /><g
     id="layer2"
     transform="translate(-146.23563,-153.08282)"><path
       style="fill:#ffffff;stroke:#000000;stroke-width:0.15;stroke-linecap:butt;stroke-linejoin:bevel;stroke-dasharray:none;stroke-dashoffset:0;stroke-opacity:1;paint-order:normal"
       d="m 158.95013,153.29532 -3.17267,12.31186 -4.2618,1.51531 -1.27854,0.66295 -3.83562,2.46237 -0.0947,0.28412 4.83004,2.88855 2.46237,1.18383 2.88856,1.4206 2.79384,1.23119 2.27296,0.61559 1.94148,0.14206 1.98884,-0.0473 2.9359,-0.75765 2.22561,-0.75766 1.9415,-0.805 1.98883,-0.89971 2.36766,-0.99442 2.27296,-1.3259 2.50973,-1.32589 0.56825,-0.42618 v -0.28412 l -0.42618,-0.28412 -1.9415,-1.27854 -2.32031,-1.32589 -1.89413,-0.80501 -2.17825,-0.85236 -0.99443,-0.33147 -2.46237,-12.02774 -0.61559,-0.33148 -0.52089,0.18942 -2.9359,0.56824 -2.50973,-0.66295 z"
       id="path1-9-6-0" /><path
       style="fill:#aa0000;stroke-width:0.2;stroke-linejoin:round"
       d="m 154.67125,169.61086 0.46877,0.97103 1.20542,0.93755 2.00903,0.93754 1.33935,0.50226 1.20542,0.36832 1.13845,0.10046 1.40632,0.10045 2.04252,-0.0335 1.17193,-0.067 1.37284,-0.26787 1.2389,-0.46878 1.20542,-0.43529 1.27239,-0.43529 0.90406,-0.46877 0.46878,-0.30136 0.19468,-0.40884 -0.77332,-5.12953 -1.79872,1.05154 -1.97554,0.43529 -2.51129,0.26787 -2.20994,0.10045 -1.4398,-0.2009 -1.33936,-0.16742 -1.54025,-0.30136 -1.64071,-0.33484 -1.07148,-0.30135 -1.23647,-0.45308 c -0.0305,-0.0243 -1.1074,4.00242 -1.1074,4.00242 z"
       id="path2-3-1-2" /></g></svg>
